<svg xmlns="http://www.w3.org/2000/svg" xmlns:xlink="http://www.w3.org/1999/xlink" width="500" zoomAndPan="magnify" viewBox="0 0 375 374.999991" height="500" preserveAspectRatio="xMidYMid meet" version="1.0"><defs><clipPath id="dded5e8bcb"><path d="M 170.132812 192.257812 L 199.953125 192.257812 L 199.953125 202.417969 L 170.132812 202.417969 Z M 170.132812 192.257812 " clip-rule="nonzero"/></clipPath><clipPath id="bfb4a7cfc4"><path d="M 168.46875 172.417969 L 206.527344 172.417969 L 206.527344 191.503906 L 168.46875 191.503906 Z M 168.46875 172.417969 " clip-rule="nonzero"/></clipPath></defs><path fill="#04bf00" d="M 192.335938 196.265625 C 191.808594 196.265625 191.382812 195.835938 191.382812 195.3125 C 191.382812 195.210938 191.398438 195.113281 191.425781 195.023438 C 191.292969 194.992188 191.152344 194.976562 191.011719 194.976562 C 189.945312 194.976562 189.085938 195.839844 189.085938 196.90625 C 189.085938 197.96875 189.945312 198.832031 191.011719 198.832031 C 192.074219 198.832031 192.9375 197.96875 192.9375 196.90625 C 192.9375 196.636719 192.882812 196.382812 192.785156 196.152344 C 192.652344 196.222656 192.496094 196.265625 192.335938 196.265625 " fill-opacity="1" fill-rule="nonzero"/><path fill="#04bf00" d="M 180.160156 196.265625 C 179.636719 196.265625 179.210938 195.835938 179.210938 195.3125 C 179.210938 195.210938 179.226562 195.113281 179.253906 195.023438 C 179.121094 194.992188 178.980469 194.976562 178.839844 194.976562 C 177.773438 194.976562 176.910156 195.839844 176.910156 196.90625 C 176.910156 197.96875 177.773438 198.832031 178.839844 198.832031 C 179.902344 198.832031 180.765625 197.96875 180.765625 196.90625 C 180.765625 196.636719 180.710938 196.382812 180.613281 196.152344 C 180.476562 196.222656 180.324219 196.265625 180.160156 196.265625 " fill-opacity="1" fill-rule="nonzero"/><g clip-path="url(#dded5e8bcb)"><path fill="#04bf00" d="M 197.148438 199.132812 C 197.148438 200.398438 196.121094 201.425781 194.859375 201.425781 L 191.847656 201.425781 C 189.457031 201.425781 187.511719 199.480469 187.511719 197.089844 L 187.511719 196.117188 C 187.511719 194.855469 188.539062 193.828125 189.804688 193.828125 L 194.859375 193.828125 C 196.121094 193.828125 197.148438 194.855469 197.148438 196.117188 Z M 182.558594 197.089844 C 182.558594 199.480469 180.613281 201.425781 178.222656 201.425781 L 175.214844 201.425781 C 173.949219 201.425781 172.921875 200.398438 172.921875 199.132812 L 172.921875 196.117188 C 172.921875 194.855469 173.949219 193.828125 175.214844 193.828125 L 180.269531 193.828125 C 181.53125 193.828125 182.558594 194.855469 182.558594 196.117188 Z M 194.964844 192.675781 C 194.929688 192.671875 194.894531 192.671875 194.859375 192.671875 L 189.804688 192.671875 C 189.441406 192.671875 189.09375 192.730469 188.765625 192.832031 C 187.773438 193 186.101562 193.257812 185.082031 193.257812 C 183.984375 193.257812 182.128906 192.960938 181.179688 192.796875 C 180.984375 192.742188 180.785156 192.707031 180.578125 192.6875 C 180.476562 192.675781 180.375 192.671875 180.269531 192.671875 L 175.214844 192.671875 C 175.179688 192.671875 175.144531 192.671875 175.109375 192.675781 C 171.058594 192.613281 170.152344 192.261719 170.152344 192.261719 C 170.152344 192.261719 170.066406 193.59375 170.320312 194.179688 C 170.671875 194.992188 171.328125 195.433594 171.800781 195.65625 C 171.777344 195.808594 171.769531 195.960938 171.769531 196.117188 L 171.769531 199.132812 C 171.769531 201.035156 173.3125 202.578125 175.214844 202.578125 L 178.222656 202.578125 C 181.25 202.578125 183.714844 200.117188 183.714844 197.089844 L 183.714844 196.117188 C 183.714844 196.117188 183.714844 196.113281 183.714844 196.109375 C 184.105469 195.84375 184.574219 195.6875 185.082031 195.6875 C 185.550781 195.6875 185.988281 195.820312 186.359375 196.050781 C 186.359375 196.074219 186.359375 196.097656 186.359375 196.117188 L 186.359375 197.089844 C 186.359375 200.117188 188.820312 202.578125 191.847656 202.578125 L 194.859375 202.578125 C 196.757812 202.578125 198.304688 201.035156 198.304688 199.132812 L 198.304688 196.117188 C 198.304688 195.960938 198.292969 195.808594 198.273438 195.65625 C 198.742188 195.433594 199.402344 194.992188 199.753906 194.179688 C 200.007812 193.59375 199.921875 192.261719 199.921875 192.261719 C 199.921875 192.261719 199.011719 192.613281 194.964844 192.675781 " fill-opacity="1" fill-rule="nonzero"/></g><path fill="#04bf00" d="M 194.851562 191.359375 C 190.085938 188.53125 187.621094 192.238281 187.621094 192.238281 C 191.238281 190.433594 194.851562 191.359375 194.851562 191.359375 " fill-opacity="1" fill-rule="nonzero"/><path fill="#04bf00" d="M 182.226562 192.238281 C 182.226562 192.238281 179.765625 188.53125 174.996094 191.359375 C 174.996094 191.359375 178.613281 190.433594 182.226562 192.238281 " fill-opacity="1" fill-rule="nonzero"/><g clip-path="url(#bfb4a7cfc4)"><path fill="#04bf00" d="M 205.972656 175.554688 C 206.371094 174.5 206.527344 173.464844 206.527344 172.648438 C 204.621094 176.089844 200.46875 177.003906 197.023438 177.164062 C 197.695312 176.507812 198.238281 175.722656 198.605469 174.855469 C 197.132812 175.78125 195.285156 175.738281 193.554688 175.5625 C 188.613281 175.054688 184.507812 172.097656 178.613281 172.445312 C 173.308594 172.753906 170.121094 175.339844 169.152344 177.984375 C 166.996094 182.453125 170.632812 191.3125 170.632812 191.3125 C 170.8125 191.355469 171.148438 191.421875 171.722656 191.484375 C 171.746094 190.976562 171.832031 189.792969 172.15625 188.5625 C 173.058594 185.683594 177.554688 184.703125 181.027344 185.273438 C 184.449219 185.839844 187.621094 188.835938 191.082031 187.554688 C 189.660156 187.230469 188.441406 186.128906 187.972656 184.746094 C 189.273438 185.894531 191.210938 185.867188 192.9375 185.683594 C 194.660156 185.5 196.144531 184.972656 197.335938 185.992188 C 198.726562 187.550781 198.996094 190.5625 199.046875 191.476562 C 199.679688 191.402344 200.003906 191.332031 200.144531 191.292969 C 200.144531 187.578125 201.738281 185.101562 202.757812 183.929688 C 204.449219 181.980469 204.570312 181.070312 204.648438 179.953125 C 203.875 180.667969 202.902344 181.148438 201.859375 181.433594 C 203.574219 180.285156 205.125 178.453125 205.972656 175.554688 " fill-opacity="1" fill-rule="nonzero"/></g></svg>